<svg xmlns="http://www.w3.org/2000/svg" width="19.971" height="23.004" viewBox="0 0 19.971 23.004"><defs><style>.a{fill:#fd71ac;}</style></defs><g transform="translate(-1348.316 -227.557)"><path class="a" d="M21.2,27.6H8.056A2.106,2.106,0,0,1,6,25.442V11.23H7.438V25.442a.669.669,0,0,0,.618.719H21.2a.669.669,0,0,0,.618-.719V11.23h1.438V25.442A2.106,2.106,0,0,1,21.2,27.6Z" transform="translate(1343.754 222.963)"/><path class="a" d="M23.252,8.438H4.719A.719.719,0,1,1,4.719,7H23.252a.719.719,0,0,1,0,1.438Z" transform="translate(1344.316 224.152)"/><g transform="translate(1355.386 235.715)"><rect class="a" width="2" height="10" transform="translate(4.614 0.285)"/><rect class="a" width="2" height="10" transform="translate(-0.386 0.285)"/></g><path class="a" d="M20.189,4.775H18.823V3.438H14.366V4.775H13V3.438A1.438,1.438,0,0,1,14.366,2h4.457a1.438,1.438,0,0,1,1.366,1.438Z" transform="translate(1342.386 225.557)"/></g></svg>